<svg width="512" height="512" viewBox="0 0 512 512" fill="none" xmlns="http://www.w3.org/2000/svg">
<path fill-rule="evenodd" clip-rule="evenodd" d="M150.458 1.536C177.757 0.279272 186.461 0 256 0C325.539 0 334.243 0.302545 361.519 1.536C388.794 2.76945 407.412 7.12146 423.703 13.4284C440.762 19.8749 456.239 29.952 469.039 42.9847C482.071 55.7615 492.125 71.2145 498.548 88.2967C504.879 104.588 509.207 123.206 510.464 150.435C511.721 177.78 512 186.484 512 256C512 325.539 511.697 334.243 510.464 361.542C509.231 388.771 504.879 407.389 498.548 423.68C492.125 440.764 482.055 456.243 469.039 469.039C456.239 482.071 440.762 492.125 423.703 498.548C407.412 504.879 388.794 509.207 361.565 510.464C334.243 511.721 325.539 512 256 512C186.461 512 177.757 511.697 150.458 510.464C123.229 509.231 104.611 504.879 88.32 498.548C71.236 492.124 55.7573 482.054 42.9615 469.039C29.9376 456.254 19.859 440.783 13.4284 423.703C7.12146 407.412 2.79273 388.794 1.536 361.565C0.279272 334.22 0 325.516 0 256C0 186.461 0.302545 177.757 1.536 150.481C2.76945 123.206 7.12146 104.588 13.4284 88.2967C19.8685 71.2164 29.9548 55.7455 42.9847 42.9615C55.7624 29.9404 71.2255 19.862 88.2967 13.4284C104.588 7.12146 123.206 2.79273 150.435 1.536H150.458ZM359.447 47.616C332.451 46.3825 324.352 46.1265 256 46.1265C187.648 46.1265 179.549 46.3825 152.553 47.616C127.581 48.7564 114.036 52.9222 105.007 56.4364C93.0676 61.0909 84.5266 66.6066 75.5666 75.5666C67.073 83.8296 60.5366 93.8888 56.4364 105.007C52.9222 114.036 48.7564 127.581 47.616 152.553C46.3825 179.549 46.1265 187.648 46.1265 256C46.1265 324.352 46.3825 332.451 47.616 359.447C48.7564 384.419 52.9222 397.964 56.4364 406.993C60.5324 418.095 67.072 428.172 75.5666 436.433C83.8284 444.928 93.9055 451.468 105.007 455.564C114.036 459.078 127.581 463.244 152.553 464.384C179.549 465.617 187.625 465.873 256 465.873C324.375 465.873 332.451 465.617 359.447 464.384C384.419 463.244 397.964 459.078 406.993 455.564C418.932 450.909 427.473 445.393 436.433 436.433C444.928 428.172 451.468 418.095 455.564 406.993C459.078 397.964 463.244 384.419 464.384 359.447C465.617 332.451 465.873 324.352 465.873 256C465.873 187.648 465.617 179.549 464.384 152.553C463.244 127.581 459.078 114.036 455.564 105.007C450.909 93.0676 445.393 84.5266 436.433 75.5666C428.17 67.0737 418.111 60.5373 406.993 56.4364C397.964 52.9222 384.419 48.7564 359.447 47.616ZM223.302 334.918C241.563 342.519 261.897 343.545 280.83 337.82C299.764 332.095 316.123 319.975 327.112 303.529C338.102 287.082 343.041 267.331 341.086 247.648C339.131 227.964 330.403 209.57 316.393 195.607C307.462 186.682 296.662 179.847 284.773 175.596C272.883 171.345 260.199 169.783 247.633 171.022C235.068 172.262 222.933 176.272 212.103 182.764C201.273 189.256 192.017 198.068 185.002 208.567C177.987 219.065 173.386 230.989 171.532 243.478C169.678 255.968 170.616 268.714 174.279 280.797C177.942 292.881 184.238 304.003 192.715 313.361C201.192 322.719 211.638 330.081 223.302 334.918ZM162.956 162.956C175.174 150.737 189.68 141.044 205.645 134.432C221.609 127.819 238.72 124.415 256 124.415C273.28 124.415 290.391 127.819 306.355 134.432C322.32 141.044 336.826 150.737 349.044 162.956C361.263 175.174 370.956 189.68 377.568 205.645C384.181 221.609 387.585 238.72 387.585 256C387.585 273.28 384.181 290.391 377.568 306.355C370.956 322.32 361.263 336.826 349.044 349.044C324.367 373.721 290.898 387.585 256 387.585C221.102 387.585 187.633 373.721 162.956 349.044C138.279 324.367 124.415 290.898 124.415 256C124.415 221.102 138.279 187.633 162.956 162.956ZM416.768 144.012C419.796 141.155 422.22 137.721 423.897 133.911C425.573 130.101 426.468 125.993 426.529 121.831C426.59 117.669 425.815 113.537 424.25 109.68C422.685 105.823 420.362 102.319 417.419 99.3755C414.475 96.4321 410.971 94.1093 407.114 92.5444C403.257 90.9796 399.125 90.2045 394.963 90.2652C390.801 90.3259 386.693 91.221 382.884 92.8977C379.074 94.5743 375.639 96.9983 372.783 100.026C367.228 105.915 364.186 113.737 364.304 121.831C364.422 129.926 367.69 137.655 373.415 143.38C379.139 149.104 386.869 152.372 394.963 152.49C403.058 152.608 410.879 149.567 416.768 144.012Z" fill="white"/>
</svg>
