<svg width="512" height="512" viewBox="0 0 512 512" fill="none" xmlns="http://www.w3.org/2000/svg">
<path d="M488.132 80.901L421.959 14.7884C417.291 10.0998 411.742 6.37974 405.633 3.84189C399.523 1.30404 392.971 -0.00158568 386.355 1.44525e-06C372.872 1.44525e-06 360.197 5.28156 350.69 14.7884L279.483 85.9961C274.795 90.6642 271.075 96.2126 268.537 102.323C265.999 108.433 264.693 114.984 264.695 121.6C264.695 135.084 269.977 147.759 279.483 157.266L331.552 209.336C319.364 236.201 302.419 260.641 281.534 281.476C260.701 302.412 236.264 319.419 209.395 331.682L157.326 279.612C152.658 274.923 147.11 271.203 141 268.665C134.89 266.127 128.339 264.822 121.722 264.823C108.239 264.823 95.5636 270.105 86.057 279.612L14.7882 350.757C10.0939 355.434 6.37072 360.993 3.83279 367.114C1.29487 373.235 -0.0076997 379.797 3.42386e-05 386.423C3.42386e-05 399.907 5.28151 412.583 14.7882 422.089L80.8377 488.14C95.9986 503.363 116.938 512 138.437 512C142.973 512 147.322 511.627 151.609 510.882C235.367 497.087 318.442 452.536 385.486 385.553C452.467 318.633 496.956 235.619 510.936 151.612C515.161 125.95 506.649 99.5417 488.132 80.901V80.901Z" fill="white"/>
</svg>
