<svg width="202" height="108" viewBox="0 0 202 108" fill="none" xmlns="http://www.w3.org/2000/svg">
<path d="M2.59391e-05 -2.52888e-05C2.31065e-05 28.5107 10.6411 55.8538 29.5822 76.014C48.5234 96.1741 74.2131 107.5 101 107.5C127.787 107.5 153.477 96.1741 172.418 76.014C191.359 55.8538 202 28.5108 202 7.62939e-06L101 -1.64591e-05L2.59391e-05 -2.52888e-05Z" fill="#F3E3DC"/>
<path d="M2.59391e-05 -2.52888e-05C2.31065e-05 28.5107 10.6411 55.8538 29.5822 76.014C48.5234 96.1741 74.2131 107.5 101 107.5C127.787 107.5 153.477 96.1741 172.418 76.014C191.359 55.8538 202 28.5108 202 7.62939e-06L101 -1.64591e-05L2.59391e-05 -2.52888e-05Z" fill="#F3E3DC"/>
<path d="M2.59391e-05 -2.52888e-05C2.31065e-05 28.5107 10.6411 55.8538 29.5822 76.014C48.5234 96.1741 74.2131 107.5 101 107.5C127.787 107.5 153.477 96.1741 172.418 76.014C191.359 55.8538 202 28.5108 202 7.62939e-06L101 -1.64591e-05L2.59391e-05 -2.52888e-05Z" fill="#F3E3DC"/>
<path d="M2.59391e-05 -2.52888e-05C2.31065e-05 28.5107 10.6411 55.8538 29.5822 76.014C48.5234 96.1741 74.2131 107.5 101 107.5C127.787 107.5 153.477 96.1741 172.418 76.014C191.359 55.8538 202 28.5108 202 7.62939e-06L101 -1.64591e-05L2.59391e-05 -2.52888e-05Z" fill="#F3E3DC"/>
</svg>
