<svg width="624" height="512" viewBox="0 0 624 512" fill="none" xmlns="http://www.w3.org/2000/svg">
<path d="M624 132.844V413.538C624 439.652 613.728 464.696 595.443 483.161C577.158 501.626 552.359 512 526.5 512H97.5C71.6414 512 46.8419 501.626 28.5571 483.161C10.2723 464.696 0 439.652 0 413.538V132.844L302.094 312.359C305.095 314.147 308.516 315.09 312 315.09C315.484 315.09 318.905 314.147 321.906 312.359L624 132.844ZM526.5 1.21906e-06C550.491 -0.00380912 573.641 8.92481 591.521 25.0778C609.401 41.2307 620.757 63.4739 623.415 87.552L312 272.542L0.585004 87.552C3.24317 63.4739 14.5986 41.2307 32.479 25.0778C50.3594 8.92481 73.5093 -0.00380912 97.5 1.21906e-06H526.5Z" fill="white"/>
</svg>
