<svg width="537" height="512" viewBox="0 0 537 512" fill="none" xmlns="http://www.w3.org/2000/svg">
<path d="M429.557 188.569C450.236 188.558 470.477 194.542 487.85 205.8C505.223 217.059 518.99 233.114 527.495 252.037C536 270.96 538.883 291.945 535.797 312.473C532.712 333.001 523.788 352.197 510.099 367.757V491.744C510.106 495.205 509.228 498.61 507.548 501.633C505.869 504.655 503.445 507.194 500.508 509.007C497.571 510.819 494.22 511.844 490.775 511.984C487.331 512.123 483.908 511.372 480.836 509.803L478.419 508.321L429.557 474.036L380.695 508.321C377.873 510.299 374.594 511.518 371.169 511.862C367.744 512.205 364.289 511.661 361.133 510.283C357.977 508.904 355.226 506.736 353.142 503.986C351.059 501.236 349.712 497.996 349.23 494.575L349.042 491.744V367.703C335.372 352.144 326.463 332.954 323.386 312.438C320.309 291.922 323.193 270.949 331.693 252.038C340.193 233.127 353.948 217.079 371.307 205.821C388.666 194.563 408.892 188.573 429.557 188.569V188.569ZM469.828 396.382C457.033 401.577 443.359 404.24 429.557 404.226C415.756 404.24 402.081 401.577 389.286 396.382V452.958L418.04 432.823C420.983 430.752 424.425 429.51 428.009 429.226C431.592 428.942 435.186 429.625 438.417 431.206L441.102 432.823L469.828 452.958V396.382V396.382ZM463.116 9.13343e-08C481.917 -0.000936353 500.01 7.19914 513.705 20.1316C527.399 33.064 535.664 50.7545 536.812 69.5946L536.947 74.1228L536.973 215.522C526.086 200.97 512.39 188.769 496.702 179.647L496.676 74.1228C496.679 65.7818 493.601 57.7358 488.037 51.5419C482.472 45.348 474.817 41.4465 466.553 40.5924L463.116 40.4306H73.8302C65.522 40.4268 57.5078 43.5172 51.3384 49.1036C45.1689 54.6901 41.2828 62.3755 40.4321 70.6728L40.271 74.1228V330.184C40.271 347.623 53.4799 361.989 70.3937 363.687L73.8302 363.876L313.362 363.903L316.664 369.374L320.262 374.657L322.168 377.191L322.141 404.306H73.8302C55.025 404.307 36.9283 397.103 23.233 384.165C9.53779 371.227 1.27623 353.53 0.13424 334.685L9.09736e-08 330.184V74.1228C-0.000932656 55.2475 7.17071 37.0828 20.0521 23.3339C32.9335 9.58508 50.5541 1.28788 69.3198 0.134772L73.8302 9.13343e-08H463.116V9.13343e-08ZM429.557 228.999C411.753 228.999 394.678 236.1 382.088 248.74C369.498 261.379 362.426 278.522 362.426 296.397C362.426 314.272 369.498 331.415 382.088 344.055C394.678 356.694 411.753 363.795 429.557 363.795C447.362 363.795 464.437 356.694 477.027 344.055C489.616 331.415 496.689 314.272 496.689 296.397C496.689 278.522 489.616 261.379 477.027 248.74C464.437 236.1 447.362 228.999 429.557 228.999ZM248.338 255.953C253.439 255.954 258.35 257.9 262.078 261.397C265.806 264.894 268.073 269.68 268.42 274.79C268.768 279.9 267.171 284.952 263.951 288.925C260.732 292.899 256.13 295.497 251.076 296.195L248.338 296.384H127.525C122.423 296.382 117.512 294.436 113.785 290.94C110.057 287.443 107.79 282.656 107.442 277.546C107.095 272.436 108.692 267.384 111.911 263.411C115.131 259.438 119.732 256.84 124.786 256.142L127.525 255.953H248.338ZM409.422 107.707C414.523 107.709 419.434 109.654 423.162 113.151C426.89 116.648 429.157 121.435 429.504 126.545C429.852 131.655 428.255 136.707 425.035 140.68C421.816 144.653 417.214 147.251 412.16 147.949L409.422 148.138H127.525C122.423 148.136 117.512 146.191 113.785 142.694C110.057 139.197 107.79 134.41 107.442 129.3C107.095 124.19 108.692 119.139 111.911 115.165C115.131 111.192 119.732 108.594 124.786 107.896L127.525 107.707H409.422Z" fill="white"/>
</svg>
