<svg width="512" height="512" viewBox="0 0 512 512" fill="none" xmlns="http://www.w3.org/2000/svg">
<path d="M42.6667 512C42.6667 512 0 512 0 469.333C0 426.667 42.6667 298.667 256 298.667C469.333 298.667 512 426.667 512 469.333C512 512 469.333 512 469.333 512H42.6667ZM256 256C289.948 256 322.505 242.514 346.51 218.51C370.514 194.505 384 161.948 384 128C384 94.0523 370.514 61.495 346.51 37.4903C322.505 13.4857 289.948 0 256 0C222.052 0 189.495 13.4857 165.49 37.4903C141.486 61.495 128 94.0523 128 128C128 161.948 141.486 194.505 165.49 218.51C189.495 242.514 222.052 256 256 256V256Z" fill="white"/>
</svg>
