<svg width="202" height="108" viewBox="0 0 202 108" fill="none" xmlns="http://www.w3.org/2000/svg">
<path d="M202 107.5C202 78.9893 191.359 51.6462 172.418 31.4861C153.477 11.3259 127.787 2.44955e-05 101 1.76594e-05C74.2131 1.08233e-05 48.5234 11.3259 29.5822 31.486C10.641 51.6462 -1.07085e-05 78.9892 -2.00783e-05 107.5L101 107.5L202 107.5Z" fill="#F3E3DC"/>
<path d="M202 107.5C202 78.9893 191.359 51.6462 172.418 31.4861C153.477 11.3259 127.787 2.44955e-05 101 1.76594e-05C74.2131 1.08233e-05 48.5234 11.3259 29.5822 31.486C10.641 51.6462 -1.07085e-05 78.9892 -2.00783e-05 107.5L101 107.5L202 107.5Z" fill="#F3E3DC"/>
<path d="M202 107.5C202 78.9893 191.359 51.6462 172.418 31.4861C153.477 11.3259 127.787 2.44955e-05 101 1.76594e-05C74.2131 1.08233e-05 48.5234 11.3259 29.5822 31.486C10.641 51.6462 -1.07085e-05 78.9892 -2.00783e-05 107.5L101 107.5L202 107.5Z" fill="#F3E3DC"/>
<path d="M202 107.5C202 78.9893 191.359 51.6462 172.418 31.4861C153.477 11.3259 127.787 2.44955e-05 101 1.76594e-05C74.2131 1.08233e-05 48.5234 11.3259 29.5822 31.486C10.641 51.6462 -1.07085e-05 78.9892 -2.00783e-05 107.5L101 107.5L202 107.5Z" fill="#F3E3DC"/>
</svg>
